<mxfile host="app.diagrams.net" agent="Mozilla/5.0 (Macintosh; Intel Mac OS X 10_15_7) AppleWebKit/605.1.15 (KHTML, like Gecko) Version/18.4 Safari/605.1.15" version="28.2.3">
  <diagram name="Trang-1" id="voluP7k5LzKoaPS6_ylx">
    <mxGraphModel dx="2313" dy="367" grid="0" gridSize="10" guides="1" tooltips="1" connect="1" arrows="1" fold="1" page="0" pageScale="1" pageWidth="827" pageHeight="1169" math="0" shadow="0">
      <root>
        <mxCell id="0" />
        <mxCell id="1" parent="0" />
        <object placeholders="1" c4Name="Single-page Application" c4Type="Container" c4Technology="JavaScript, Angular " c4Description="Provides all of the library online functionally to customers or administrators via their web browser." label="&lt;font style=&quot;font-size: 16px&quot;&gt;&lt;b&gt;%c4Name%&lt;/b&gt;&lt;/font&gt;&lt;div&gt;[%c4Type%:&amp;nbsp;%c4Technology%]&lt;/div&gt;&lt;br&gt;&lt;div&gt;&lt;font style=&quot;font-size: 11px&quot;&gt;&lt;font color=&quot;#E6E6E6&quot;&gt;%c4Description%&lt;/font&gt;&lt;/div&gt;" id="6JrDKTPBiihJPNNbZpGh-6">
          <mxCell style="shape=mxgraph.c4.webBrowserContainer2;whiteSpace=wrap;html=1;boundedLbl=1;rounded=0;labelBackgroundColor=none;strokeColor=#118ACD;fillColor=#23A2D9;strokeColor=#118ACD;strokeColor2=#0E7DAD;fontSize=12;fontColor=#ffffff;align=center;metaEdit=1;points=[[0.5,0,0],[1,0.25,0],[1,0.5,0],[1,0.75,0],[0.5,1,0],[0,0.75,0],[0,0.5,0],[0,0.25,0]];resizable=0;allowArrows=1;connectable=1;expand=1;" vertex="1" parent="1">
            <mxGeometry x="-722" y="405" width="240" height="160" as="geometry" />
          </mxCell>
        </object>
        <object placeholders="1" c4Name="Mobile App" c4Type="Container" c4Technology="Xamarin" c4Description="Provides a suitable library system interface on the phone." label="&lt;font style=&quot;font-size: 16px&quot;&gt;&lt;b&gt;%c4Name%&lt;/b&gt;&lt;/font&gt;&lt;div&gt;[%c4Type%: %c4Technology%]&lt;/div&gt;&lt;br&gt;&lt;div&gt;&lt;font style=&quot;font-size: 11px&quot;&gt;%c4Description%&lt;/font&gt;&lt;/div&gt;" id="6JrDKTPBiihJPNNbZpGh-7">
          <mxCell style="rounded=1;whiteSpace=wrap;html=1;labelBackgroundColor=none;fillColor=light-dark(#00a3d7, #176592);fontColor=#ffffff;align=center;arcSize=6;strokeColor=#2086C9;metaEdit=1;resizable=0;points=[[0.25,0,0],[0.5,0,0],[0.75,0,0],[1,0.25,0],[1,0.5,0],[1,0.75,0],[0.75,1,0],[0.5,1,0],[0.25,1,0],[0,0.75,0],[0,0.5,0],[0,0.25,0]];" vertex="1" parent="1">
            <mxGeometry x="-227" y="425" width="240" height="120" as="geometry" />
          </mxCell>
        </object>
        <mxCell id="6JrDKTPBiihJPNNbZpGh-9" value="" style="rounded=0;whiteSpace=wrap;html=1;dashed=1;dashPattern=8 8;" vertex="1" parent="1">
          <mxGeometry x="-1105" y="680" width="1577" height="342" as="geometry" />
        </mxCell>
        <object placeholders="1" c4Name="Basic Search Controller" c4Type="Container" c4Technology="Spring MVC Rest Controller" c4Description="Enter keywords (book title, author, ISBN, genre…)" label="&lt;font style=&quot;font-size: 16px&quot;&gt;&lt;b&gt;%c4Name%&lt;/b&gt;&lt;/font&gt;&lt;div&gt;[%c4Type%: %c4Technology%]&lt;/div&gt;&lt;br&gt;&lt;div&gt;&lt;font style=&quot;font-size: 11px&quot;&gt;&lt;font color=&quot;#E6E6E6&quot;&gt;%c4Description%&lt;/font&gt;&lt;/div&gt;" id="6JrDKTPBiihJPNNbZpGh-8">
          <mxCell style="rounded=1;whiteSpace=wrap;html=1;fontSize=11;labelBackgroundColor=none;fillColor=light-dark(#66B2FF,#1D8AB9);fontColor=#ffffff;align=center;arcSize=10;strokeColor=#0E7DAD;metaEdit=1;resizable=0;points=[[0.25,0,0],[0.5,0,0],[0.75,0,0],[1,0.25,0],[1,0.5,0],[1,0.75,0],[0.75,1,0],[0.5,1,0],[0.25,1,0],[0,0.75,0],[0,0.5,0],[0,0.25,0]];" vertex="1" parent="1">
            <mxGeometry x="-1081" y="701" width="240" height="120" as="geometry" />
          </mxCell>
        </object>
        <object placeholders="1" c4Name="Filter Controller" c4Type="Component" c4Technology="Spring MVC Rest Controller" c4Description="Filter by multiple criteria: book title, author, price, publication year, publisher, genre." label="&lt;font style=&quot;font-size: 16px&quot;&gt;&lt;b&gt;%c4Name%&lt;/b&gt;&lt;/font&gt;&lt;div&gt;[%c4Type%: %c4Technology%]&lt;/div&gt;&lt;br&gt;&lt;div&gt;&lt;font style=&quot;font-size: 11px&quot;&gt;&lt;font color=&quot;#E6E6E6&quot;&gt;%c4Description%&lt;/font&gt;&lt;/div&gt;" id="6JrDKTPBiihJPNNbZpGh-11">
          <mxCell style="rounded=1;whiteSpace=wrap;html=1;fontSize=11;labelBackgroundColor=none;fillColor=light-dark(#66B2FF,#1D8AB9);fontColor=#ffffff;align=center;arcSize=10;strokeColor=#0E7DAD;metaEdit=1;resizable=0;points=[[0.25,0,0],[0.5,0,0],[0.75,0,0],[1,0.25,0],[1,0.5,0],[1,0.75,0],[0.75,1,0],[0.5,1,0],[0.25,1,0],[0,0.75,0],[0,0.5,0],[0,0.25,0]];" vertex="1" parent="1">
            <mxGeometry x="-661" y="701" width="240" height="120" as="geometry" />
          </mxCell>
        </object>
        <object placeholders="1" c4Name="Search Component" c4Type="Component" c4Technology="Spring Bean" c4Description="Provides functionally related to find book title, author, ISBN, genre…" label="&lt;font style=&quot;font-size: 16px&quot;&gt;&lt;b&gt;%c4Name%&lt;/b&gt;&lt;/font&gt;&lt;div&gt;[%c4Type%: %c4Technology%]&lt;/div&gt;&lt;br&gt;&lt;div&gt;&lt;font style=&quot;font-size: 11px&quot;&gt;&lt;font color=&quot;#E6E6E6&quot;&gt;%c4Description%&lt;/font&gt;&lt;/div&gt;" id="6JrDKTPBiihJPNNbZpGh-13">
          <mxCell style="rounded=1;whiteSpace=wrap;html=1;fontSize=11;labelBackgroundColor=none;fillColor=light-dark(#66B2FF,#1D8AB9);fontColor=#ffffff;align=center;arcSize=10;strokeColor=#0E7DAD;metaEdit=1;resizable=0;points=[[0.25,0,0],[0.5,0,0],[0.75,0,0],[1,0.25,0],[1,0.5,0],[1,0.75,0],[0.75,1,0],[0.5,1,0],[0.25,1,0],[0,0.75,0],[0,0.5,0],[0,0.25,0]];" vertex="1" parent="1">
            <mxGeometry x="-1081" y="868" width="240" height="120" as="geometry" />
          </mxCell>
        </object>
        <object placeholders="1" c4Name="Filter Component" c4Type="Component" c4Technology="Spring Bean" c4Description="Provides functionally related to filter by multiple criteria" label="&lt;font style=&quot;font-size: 16px&quot;&gt;&lt;b&gt;%c4Name%&lt;/b&gt;&lt;/font&gt;&lt;div&gt;[%c4Type%: %c4Technology%]&lt;/div&gt;&lt;br&gt;&lt;div&gt;&lt;font style=&quot;font-size: 11px&quot;&gt;&lt;font color=&quot;#E6E6E6&quot;&gt;%c4Description%&lt;/font&gt;&lt;/div&gt;" id="6JrDKTPBiihJPNNbZpGh-17">
          <mxCell style="rounded=1;whiteSpace=wrap;html=1;fontSize=11;labelBackgroundColor=none;fillColor=light-dark(#66B2FF,#1D8AB9);fontColor=#ffffff;align=center;arcSize=10;strokeColor=#0E7DAD;metaEdit=1;resizable=0;points=[[0.25,0,0],[0.5,0,0],[0.75,0,0],[1,0.25,0],[1,0.5,0],[1,0.75,0],[0.75,1,0],[0.5,1,0],[0.25,1,0],[0,0.75,0],[0,0.5,0],[0,0.25,0]];" vertex="1" parent="1">
            <mxGeometry x="-661" y="868" width="240" height="120" as="geometry" />
          </mxCell>
        </object>
        <object placeholders="1" c4Name=" Sort Controller" c4Type="Component" c4Technology="Spring MVC Rest Controller" c4Description="Sort by alphabetical order, price, etc" label="&lt;font style=&quot;font-size: 16px&quot;&gt;&lt;b&gt;%c4Name%&lt;/b&gt;&lt;/font&gt;&lt;div&gt;[%c4Type%: %c4Technology%]&lt;/div&gt;&lt;br&gt;&lt;div&gt;&lt;font style=&quot;font-size: 11px&quot;&gt;&lt;font color=&quot;#E6E6E6&quot;&gt;%c4Description%&lt;/font&gt;&lt;/div&gt;" id="6JrDKTPBiihJPNNbZpGh-19">
          <mxCell style="rounded=1;whiteSpace=wrap;html=1;fontSize=11;labelBackgroundColor=none;fillColor=light-dark(#66B2FF,#1D8AB9);fontColor=#ffffff;align=center;arcSize=10;strokeColor=#0E7DAD;metaEdit=1;resizable=0;points=[[0.25,0,0],[0.5,0,0],[0.75,0,0],[1,0.25,0],[1,0.5,0],[1,0.75,0],[0.75,1,0],[0.5,1,0],[0.25,1,0],[0,0.75,0],[0,0.5,0],[0,0.25,0]];" vertex="1" parent="1">
            <mxGeometry x="-227" y="701" width="240" height="120" as="geometry" />
          </mxCell>
        </object>
        <object placeholders="1" c4Name="Sort Component" c4Type="Component" c4Technology="Spring Bean" c4Description="Provides functionally related to sort" label="&lt;font style=&quot;font-size: 16px&quot;&gt;&lt;b&gt;%c4Name%&lt;/b&gt;&lt;/font&gt;&lt;div&gt;[%c4Type%: %c4Technology%]&lt;/div&gt;&lt;br&gt;&lt;div&gt;&lt;font style=&quot;font-size: 11px&quot;&gt;&lt;font color=&quot;#E6E6E6&quot;&gt;%c4Description%&lt;/font&gt;&lt;/div&gt;" id="6JrDKTPBiihJPNNbZpGh-20">
          <mxCell style="rounded=1;whiteSpace=wrap;html=1;fontSize=11;labelBackgroundColor=none;fillColor=light-dark(#66B2FF,#1D8AB9);fontColor=#ffffff;align=center;arcSize=10;strokeColor=#0E7DAD;metaEdit=1;resizable=0;points=[[0.25,0,0],[0.5,0,0],[0.75,0,0],[1,0.25,0],[1,0.5,0],[1,0.75,0],[0.75,1,0],[0.5,1,0],[0.25,1,0],[0,0.75,0],[0,0.5,0],[0,0.25,0]];" vertex="1" parent="1">
            <mxGeometry x="-227" y="868" width="240" height="120" as="geometry" />
          </mxCell>
        </object>
        <object placeholders="1" c4Name="Database" c4Type="Container" c4Technology="Microsoft SQL Server" c4Description="Stores book information, inventory, loan lists, etc." label="&lt;font style=&quot;font-size: 16px&quot;&gt;&lt;b&gt;%c4Name%&lt;/b&gt;&lt;/font&gt;&lt;div&gt;[%c4Type%:&amp;nbsp;%c4Technology%]&lt;/div&gt;&lt;br&gt;&lt;div&gt;&lt;font style=&quot;font-size: 11px&quot;&gt;&lt;font color=&quot;#E6E6E6&quot;&gt;%c4Description%&lt;/font&gt;&lt;/div&gt;" id="6JrDKTPBiihJPNNbZpGh-22">
          <mxCell style="shape=cylinder3;size=15;whiteSpace=wrap;html=1;boundedLbl=1;rounded=0;labelBackgroundColor=none;fillColor=#23A2D9;fontSize=12;fontColor=#ffffff;align=center;strokeColor=#0E7DAD;metaEdit=1;points=[[0.5,0,0],[1,0.25,0],[1,0.5,0],[1,0.75,0],[0.5,1,0],[0,0.75,0],[0,0.5,0],[0,0.25,0]];resizable=0;" vertex="1" parent="1">
            <mxGeometry x="-436.5" y="1079" width="240" height="120" as="geometry" />
          </mxCell>
        </object>
        <mxCell id="6JrDKTPBiihJPNNbZpGh-26" value="" style="endArrow=classic;html=1;rounded=0;exitX=0.196;exitY=0.999;exitDx=0;exitDy=0;exitPerimeter=0;entryX=0.5;entryY=0;entryDx=0;entryDy=0;entryPerimeter=0;dashed=1;dashPattern=8 8;" edge="1" parent="1" source="6JrDKTPBiihJPNNbZpGh-6" target="6JrDKTPBiihJPNNbZpGh-8">
          <mxGeometry width="50" height="50" relative="1" as="geometry">
            <mxPoint x="-334" y="595" as="sourcePoint" />
            <mxPoint x="-471" y="743" as="targetPoint" />
          </mxGeometry>
        </mxCell>
        <mxCell id="6JrDKTPBiihJPNNbZpGh-27" value="&lt;span style=&quot;font-size: 14px;&quot;&gt;&lt;b&gt;Makes API calls to&lt;/b&gt;&lt;/span&gt;&lt;br&gt;&lt;div&gt;&lt;font style=&quot;font-size: 12px;&quot;&gt;[JSON/HTTPS]&lt;/font&gt;&lt;/div&gt;" style="edgeLabel;html=1;align=center;verticalAlign=middle;resizable=0;points=[];" vertex="1" connectable="0" parent="6JrDKTPBiihJPNNbZpGh-26">
          <mxGeometry x="-0.1642" y="-2" relative="1" as="geometry">
            <mxPoint x="1" as="offset" />
          </mxGeometry>
        </mxCell>
        <mxCell id="6JrDKTPBiihJPNNbZpGh-28" value="" style="endArrow=classic;html=1;rounded=0;exitX=0.5;exitY=1;exitDx=0;exitDy=0;exitPerimeter=0;entryX=0.25;entryY=0;entryDx=0;entryDy=0;entryPerimeter=0;dashed=1;dashPattern=8 8;" edge="1" parent="1" source="6JrDKTPBiihJPNNbZpGh-6" target="6JrDKTPBiihJPNNbZpGh-11">
          <mxGeometry width="50" height="50" relative="1" as="geometry">
            <mxPoint x="-816" y="595" as="sourcePoint" />
            <mxPoint x="-951" y="711" as="targetPoint" />
          </mxGeometry>
        </mxCell>
        <mxCell id="6JrDKTPBiihJPNNbZpGh-29" value="&lt;span style=&quot;font-size: 14px;&quot;&gt;&lt;b&gt;Makes API calls to&lt;/b&gt;&lt;/span&gt;&lt;br&gt;&lt;div&gt;&lt;font style=&quot;font-size: 12px;&quot;&gt;[JSON/HTTPS]&lt;/font&gt;&lt;/div&gt;" style="edgeLabel;html=1;align=center;verticalAlign=middle;resizable=0;points=[];" vertex="1" connectable="0" parent="6JrDKTPBiihJPNNbZpGh-28">
          <mxGeometry x="-0.1642" y="-2" relative="1" as="geometry">
            <mxPoint x="1" as="offset" />
          </mxGeometry>
        </mxCell>
        <mxCell id="6JrDKTPBiihJPNNbZpGh-30" value="" style="endArrow=classic;html=1;rounded=0;exitX=0.824;exitY=0.999;exitDx=0;exitDy=0;exitPerimeter=0;entryX=0.25;entryY=0;entryDx=0;entryDy=0;entryPerimeter=0;dashed=1;dashPattern=8 8;" edge="1" parent="1" source="6JrDKTPBiihJPNNbZpGh-6" target="6JrDKTPBiihJPNNbZpGh-19">
          <mxGeometry width="50" height="50" relative="1" as="geometry">
            <mxPoint x="-743" y="595" as="sourcePoint" />
            <mxPoint x="-591" y="711" as="targetPoint" />
          </mxGeometry>
        </mxCell>
        <mxCell id="6JrDKTPBiihJPNNbZpGh-31" value="&lt;span style=&quot;font-size: 14px;&quot;&gt;&lt;b&gt;Makes API calls to&lt;/b&gt;&lt;/span&gt;&lt;br&gt;&lt;div&gt;&lt;font style=&quot;font-size: 12px;&quot;&gt;[JSON/HTTPS]&lt;/font&gt;&lt;/div&gt;" style="edgeLabel;html=1;align=center;verticalAlign=middle;resizable=0;points=[];" vertex="1" connectable="0" parent="6JrDKTPBiihJPNNbZpGh-30">
          <mxGeometry x="-0.1642" y="-2" relative="1" as="geometry">
            <mxPoint x="1" as="offset" />
          </mxGeometry>
        </mxCell>
        <mxCell id="6JrDKTPBiihJPNNbZpGh-32" value="" style="endArrow=classic;html=1;rounded=0;exitX=0.25;exitY=1;exitDx=0;exitDy=0;exitPerimeter=0;entryX=0.75;entryY=0;entryDx=0;entryDy=0;entryPerimeter=0;dashed=1;dashPattern=8 8;" edge="1" parent="1" source="6JrDKTPBiihJPNNbZpGh-7" target="6JrDKTPBiihJPNNbZpGh-8">
          <mxGeometry width="50" height="50" relative="1" as="geometry">
            <mxPoint x="-613" y="838" as="sourcePoint" />
            <mxPoint x="-563" y="788" as="targetPoint" />
          </mxGeometry>
        </mxCell>
        <mxCell id="6JrDKTPBiihJPNNbZpGh-33" value="" style="endArrow=classic;html=1;rounded=0;exitX=0.5;exitY=1;exitDx=0;exitDy=0;exitPerimeter=0;entryX=0.5;entryY=0;entryDx=0;entryDy=0;entryPerimeter=0;dashed=1;dashPattern=8 8;" edge="1" parent="1" source="6JrDKTPBiihJPNNbZpGh-7" target="6JrDKTPBiihJPNNbZpGh-11">
          <mxGeometry width="50" height="50" relative="1" as="geometry">
            <mxPoint x="-334" y="555" as="sourcePoint" />
            <mxPoint x="-891" y="711" as="targetPoint" />
          </mxGeometry>
        </mxCell>
        <mxCell id="6JrDKTPBiihJPNNbZpGh-36" value="" style="endArrow=classic;html=1;rounded=0;exitX=0.75;exitY=1;exitDx=0;exitDy=0;exitPerimeter=0;entryX=0.5;entryY=0;entryDx=0;entryDy=0;entryPerimeter=0;dashed=1;dashPattern=8 8;" edge="1" parent="1" source="6JrDKTPBiihJPNNbZpGh-7" target="6JrDKTPBiihJPNNbZpGh-19">
          <mxGeometry width="50" height="50" relative="1" as="geometry">
            <mxPoint x="-43" y="632" as="sourcePoint" />
            <mxPoint x="-180" y="780" as="targetPoint" />
          </mxGeometry>
        </mxCell>
        <mxCell id="6JrDKTPBiihJPNNbZpGh-37" value="&lt;span style=&quot;font-size: 14px;&quot;&gt;&lt;b&gt;Makes API calls to&lt;/b&gt;&lt;/span&gt;&lt;br&gt;&lt;div&gt;&lt;font style=&quot;font-size: 12px;&quot;&gt;[JSON/HTTPS]&lt;/font&gt;&lt;/div&gt;" style="edgeLabel;html=1;align=center;verticalAlign=middle;resizable=0;points=[];" vertex="1" connectable="0" parent="6JrDKTPBiihJPNNbZpGh-36">
          <mxGeometry x="-0.1642" y="-2" relative="1" as="geometry">
            <mxPoint x="7" y="17" as="offset" />
          </mxGeometry>
        </mxCell>
        <mxCell id="6JrDKTPBiihJPNNbZpGh-49" value="&lt;span style=&quot;font-size: 14px;&quot;&gt;&lt;b&gt;Makes API calls to&lt;/b&gt;&lt;/span&gt;&lt;br&gt;&lt;div&gt;&lt;font style=&quot;font-size: 12px;&quot;&gt;[JSON/HTTPS]&lt;/font&gt;&lt;/div&gt;" style="edgeLabel;html=1;align=center;verticalAlign=middle;resizable=0;points=[];" vertex="1" connectable="0" parent="6JrDKTPBiihJPNNbZpGh-36">
          <mxGeometry x="-0.1642" y="-2" relative="1" as="geometry">
            <mxPoint x="228" y="-8" as="offset" />
          </mxGeometry>
        </mxCell>
        <mxCell id="6JrDKTPBiihJPNNbZpGh-38" value="" style="endArrow=classic;html=1;rounded=0;exitX=0.5;exitY=1;exitDx=0;exitDy=0;exitPerimeter=0;entryX=0.5;entryY=0;entryDx=0;entryDy=0;entryPerimeter=0;" edge="1" parent="1" source="6JrDKTPBiihJPNNbZpGh-8" target="6JrDKTPBiihJPNNbZpGh-13">
          <mxGeometry width="50" height="50" relative="1" as="geometry">
            <mxPoint x="-758" y="884" as="sourcePoint" />
            <mxPoint x="-708" y="834" as="targetPoint" />
          </mxGeometry>
        </mxCell>
        <mxCell id="6JrDKTPBiihJPNNbZpGh-39" value="&lt;font style=&quot;font-size: 14px;&quot;&gt;Uses&lt;/font&gt;" style="edgeLabel;html=1;align=center;verticalAlign=middle;resizable=0;points=[];" vertex="1" connectable="0" parent="6JrDKTPBiihJPNNbZpGh-38">
          <mxGeometry x="-0.0516" y="2" relative="1" as="geometry">
            <mxPoint as="offset" />
          </mxGeometry>
        </mxCell>
        <mxCell id="6JrDKTPBiihJPNNbZpGh-40" value="" style="endArrow=classic;html=1;rounded=0;exitX=0.5;exitY=1;exitDx=0;exitDy=0;exitPerimeter=0;entryX=0.5;entryY=0;entryDx=0;entryDy=0;entryPerimeter=0;" edge="1" parent="1" source="6JrDKTPBiihJPNNbZpGh-11" target="6JrDKTPBiihJPNNbZpGh-17">
          <mxGeometry width="50" height="50" relative="1" as="geometry">
            <mxPoint x="-951" y="831" as="sourcePoint" />
            <mxPoint x="-951" y="896" as="targetPoint" />
          </mxGeometry>
        </mxCell>
        <mxCell id="6JrDKTPBiihJPNNbZpGh-41" value="&lt;font style=&quot;font-size: 14px;&quot;&gt;Uses&lt;/font&gt;" style="edgeLabel;html=1;align=center;verticalAlign=middle;resizable=0;points=[];" vertex="1" connectable="0" parent="6JrDKTPBiihJPNNbZpGh-40">
          <mxGeometry x="-0.0516" y="2" relative="1" as="geometry">
            <mxPoint as="offset" />
          </mxGeometry>
        </mxCell>
        <mxCell id="6JrDKTPBiihJPNNbZpGh-42" value="" style="endArrow=classic;html=1;rounded=0;exitX=0.5;exitY=1;exitDx=0;exitDy=0;exitPerimeter=0;entryX=0.5;entryY=0;entryDx=0;entryDy=0;entryPerimeter=0;" edge="1" parent="1" source="6JrDKTPBiihJPNNbZpGh-19" target="6JrDKTPBiihJPNNbZpGh-20">
          <mxGeometry width="50" height="50" relative="1" as="geometry">
            <mxPoint x="-107.58999999999997" y="821" as="sourcePoint" />
            <mxPoint x="-107.58999999999997" y="868" as="targetPoint" />
          </mxGeometry>
        </mxCell>
        <mxCell id="6JrDKTPBiihJPNNbZpGh-43" value="&lt;font style=&quot;font-size: 14px;&quot;&gt;Uses&lt;/font&gt;" style="edgeLabel;html=1;align=center;verticalAlign=middle;resizable=0;points=[];" vertex="1" connectable="0" parent="6JrDKTPBiihJPNNbZpGh-42">
          <mxGeometry x="-0.0516" y="2" relative="1" as="geometry">
            <mxPoint as="offset" />
          </mxGeometry>
        </mxCell>
        <object placeholders="1" c4Name="Autocomplete Controller" c4Type="Component" c4Technology="Spring MVC Rest Controller" c4Description="Make keyword suggestions" label="&lt;font style=&quot;font-size: 16px&quot;&gt;&lt;b&gt;%c4Name%&lt;/b&gt;&lt;/font&gt;&lt;div&gt;[%c4Type%: %c4Technology%]&lt;/div&gt;&lt;br&gt;&lt;div&gt;&lt;font style=&quot;font-size: 11px&quot;&gt;&lt;font color=&quot;#E6E6E6&quot;&gt;%c4Description%&lt;/font&gt;&lt;/div&gt;" id="6JrDKTPBiihJPNNbZpGh-44">
          <mxCell style="rounded=1;whiteSpace=wrap;html=1;fontSize=11;labelBackgroundColor=none;fillColor=light-dark(#66B2FF,#1D8AB9);fontColor=#ffffff;align=center;arcSize=10;strokeColor=#0E7DAD;metaEdit=1;resizable=0;points=[[0.25,0,0],[0.5,0,0],[0.75,0,0],[1,0.25,0],[1,0.5,0],[1,0.75,0],[0.75,1,0],[0.5,1,0],[0.25,1,0],[0,0.75,0],[0,0.5,0],[0,0.25,0]];" vertex="1" parent="1">
            <mxGeometry x="207" y="701" width="240" height="120" as="geometry" />
          </mxCell>
        </object>
        <object placeholders="1" c4Name="Autocomplete Component" c4Type="Component" c4Technology="Spring Bean" c4Description="Provides functionally make keyword suggestions" label="&lt;font style=&quot;font-size: 16px&quot;&gt;&lt;b&gt;%c4Name%&lt;/b&gt;&lt;/font&gt;&lt;div&gt;[%c4Type%: %c4Technology%]&lt;/div&gt;&lt;br&gt;&lt;div&gt;&lt;font style=&quot;font-size: 11px&quot;&gt;&lt;font color=&quot;#E6E6E6&quot;&gt;%c4Description%&lt;/font&gt;&lt;/div&gt;" id="6JrDKTPBiihJPNNbZpGh-45">
          <mxCell style="rounded=1;whiteSpace=wrap;html=1;fontSize=11;labelBackgroundColor=none;fillColor=light-dark(#66B2FF,#1D8AB9);fontColor=#ffffff;align=center;arcSize=10;strokeColor=#0E7DAD;metaEdit=1;resizable=0;points=[[0.25,0,0],[0.5,0,0],[0.75,0,0],[1,0.25,0],[1,0.5,0],[1,0.75,0],[0.75,1,0],[0.5,1,0],[0.25,1,0],[0,0.75,0],[0,0.5,0],[0,0.25,0]];" vertex="1" parent="1">
            <mxGeometry x="207" y="868" width="240" height="120" as="geometry" />
          </mxCell>
        </object>
        <mxCell id="6JrDKTPBiihJPNNbZpGh-46" value="" style="endArrow=classic;html=1;rounded=0;exitX=1;exitY=0.75;exitDx=0;exitDy=0;exitPerimeter=0;entryX=0.25;entryY=0;entryDx=0;entryDy=0;entryPerimeter=0;dashed=1;dashPattern=8 8;" edge="1" parent="1" source="6JrDKTPBiihJPNNbZpGh-6" target="6JrDKTPBiihJPNNbZpGh-44">
          <mxGeometry width="50" height="50" relative="1" as="geometry">
            <mxPoint x="-514" y="575" as="sourcePoint" />
            <mxPoint x="-157" y="711" as="targetPoint" />
          </mxGeometry>
        </mxCell>
        <mxCell id="6JrDKTPBiihJPNNbZpGh-48" value="" style="endArrow=classic;html=1;rounded=0;exitX=1;exitY=0.75;exitDx=0;exitDy=0;exitPerimeter=0;entryX=0.5;entryY=0;entryDx=0;entryDy=0;entryPerimeter=0;dashed=1;dashPattern=8 8;" edge="1" parent="1" source="6JrDKTPBiihJPNNbZpGh-7" target="6JrDKTPBiihJPNNbZpGh-44">
          <mxGeometry width="50" height="50" relative="1" as="geometry">
            <mxPoint x="-97" y="555" as="sourcePoint" />
            <mxPoint x="-531" y="711" as="targetPoint" />
          </mxGeometry>
        </mxCell>
        <mxCell id="6JrDKTPBiihJPNNbZpGh-50" value="" style="endArrow=classic;html=1;rounded=0;entryX=0.5;entryY=0;entryDx=0;entryDy=0;entryPerimeter=0;exitX=0.5;exitY=1;exitDx=0;exitDy=0;exitPerimeter=0;" edge="1" parent="1" source="6JrDKTPBiihJPNNbZpGh-44" target="6JrDKTPBiihJPNNbZpGh-45">
          <mxGeometry width="50" height="50" relative="1" as="geometry">
            <mxPoint x="-97" y="831" as="sourcePoint" />
            <mxPoint x="-97" y="878" as="targetPoint" />
          </mxGeometry>
        </mxCell>
        <mxCell id="6JrDKTPBiihJPNNbZpGh-51" value="&lt;font style=&quot;font-size: 14px;&quot;&gt;Uses&lt;/font&gt;" style="edgeLabel;html=1;align=center;verticalAlign=middle;resizable=0;points=[];" vertex="1" connectable="0" parent="6JrDKTPBiihJPNNbZpGh-50">
          <mxGeometry x="-0.0516" y="2" relative="1" as="geometry">
            <mxPoint as="offset" />
          </mxGeometry>
        </mxCell>
        <mxCell id="6JrDKTPBiihJPNNbZpGh-52" value="" style="endArrow=classic;html=1;rounded=0;exitX=0.5;exitY=1;exitDx=0;exitDy=0;exitPerimeter=0;entryX=0.177;entryY=0.037;entryDx=0;entryDy=0;entryPerimeter=0;dashed=1;dashPattern=8 8;" edge="1" parent="1" source="6JrDKTPBiihJPNNbZpGh-13" target="6JrDKTPBiihJPNNbZpGh-22">
          <mxGeometry width="50" height="50" relative="1" as="geometry">
            <mxPoint x="-141" y="1068" as="sourcePoint" />
            <mxPoint x="-459" y="1068" as="targetPoint" />
          </mxGeometry>
        </mxCell>
        <mxCell id="6JrDKTPBiihJPNNbZpGh-53" value="&lt;span style=&quot;font-size: 14px;&quot;&gt;&lt;b&gt;Reads from&amp;nbsp;&lt;/b&gt;&lt;/span&gt;&lt;div&gt;&lt;div&gt;&lt;font style=&quot;font-size: 12px;&quot;&gt;[Microsoft SQL Server]&lt;/font&gt;&lt;/div&gt;&lt;/div&gt;" style="edgeLabel;html=1;align=center;verticalAlign=middle;resizable=0;points=[];" vertex="1" connectable="0" parent="6JrDKTPBiihJPNNbZpGh-52">
          <mxGeometry x="-0.1642" y="-2" relative="1" as="geometry">
            <mxPoint x="-20" y="-8" as="offset" />
          </mxGeometry>
        </mxCell>
        <mxCell id="6JrDKTPBiihJPNNbZpGh-54" value="" style="endArrow=classic;html=1;rounded=0;exitX=0.5;exitY=1;exitDx=0;exitDy=0;exitPerimeter=0;entryX=0.402;entryY=-0.011;entryDx=0;entryDy=0;entryPerimeter=0;dashed=1;dashPattern=8 8;" edge="1" parent="1" source="6JrDKTPBiihJPNNbZpGh-17" target="6JrDKTPBiihJPNNbZpGh-22">
          <mxGeometry width="50" height="50" relative="1" as="geometry">
            <mxPoint x="-951" y="998" as="sourcePoint" />
            <mxPoint x="-951" y="1107" as="targetPoint" />
          </mxGeometry>
        </mxCell>
        <mxCell id="6JrDKTPBiihJPNNbZpGh-55" value="&lt;span style=&quot;font-size: 14px;&quot;&gt;&lt;b&gt;Reads from&lt;/b&gt;&lt;/span&gt;&lt;div&gt;&lt;span style=&quot;font-size: 12px;&quot;&gt;[Microsoft SQL Server]&lt;/span&gt;&lt;/div&gt;" style="edgeLabel;html=1;align=center;verticalAlign=middle;resizable=0;points=[];" vertex="1" connectable="0" parent="6JrDKTPBiihJPNNbZpGh-54">
          <mxGeometry x="-0.1642" y="-2" relative="1" as="geometry">
            <mxPoint x="-11" y="-5" as="offset" />
          </mxGeometry>
        </mxCell>
        <mxCell id="6JrDKTPBiihJPNNbZpGh-56" value="" style="endArrow=classic;html=1;rounded=0;exitX=0.5;exitY=1;exitDx=0;exitDy=0;exitPerimeter=0;entryX=0.662;entryY=-0.001;entryDx=0;entryDy=0;entryPerimeter=0;dashed=1;dashPattern=8 8;" edge="1" parent="1" source="6JrDKTPBiihJPNNbZpGh-20" target="6JrDKTPBiihJPNNbZpGh-22">
          <mxGeometry width="50" height="50" relative="1" as="geometry">
            <mxPoint x="-531" y="998" as="sourcePoint" />
            <mxPoint x="-865" y="1110" as="targetPoint" />
          </mxGeometry>
        </mxCell>
        <mxCell id="6JrDKTPBiihJPNNbZpGh-57" value="&lt;span style=&quot;font-size: 14px;&quot;&gt;&lt;b&gt;Reads from&amp;nbsp;&lt;/b&gt;&lt;/span&gt;&lt;div&gt;&lt;div&gt;&lt;font style=&quot;font-size: 12px;&quot;&gt;[Microsoft SQL Server]&lt;/font&gt;&lt;/div&gt;&lt;/div&gt;" style="edgeLabel;html=1;align=center;verticalAlign=middle;resizable=0;points=[];" vertex="1" connectable="0" parent="6JrDKTPBiihJPNNbZpGh-56">
          <mxGeometry x="-0.1642" y="-2" relative="1" as="geometry">
            <mxPoint x="1" as="offset" />
          </mxGeometry>
        </mxCell>
        <mxCell id="6JrDKTPBiihJPNNbZpGh-58" value="" style="endArrow=classic;html=1;rounded=0;exitX=0.5;exitY=1;exitDx=0;exitDy=0;exitPerimeter=0;entryX=0.907;entryY=0.048;entryDx=0;entryDy=0;entryPerimeter=0;dashed=1;dashPattern=8 8;" edge="1" parent="1" source="6JrDKTPBiihJPNNbZpGh-45" target="6JrDKTPBiihJPNNbZpGh-22">
          <mxGeometry width="50" height="50" relative="1" as="geometry">
            <mxPoint x="-97" y="998" as="sourcePoint" />
            <mxPoint x="-831" y="1137" as="targetPoint" />
          </mxGeometry>
        </mxCell>
        <mxCell id="6JrDKTPBiihJPNNbZpGh-59" value="&lt;span style=&quot;font-size: 14px;&quot;&gt;&lt;b&gt;Reads from&amp;nbsp;&lt;/b&gt;&lt;/span&gt;&lt;div&gt;&lt;div&gt;&lt;font style=&quot;font-size: 12px;&quot;&gt;[Microsoft SQL Server]&lt;/font&gt;&lt;/div&gt;&lt;/div&gt;" style="edgeLabel;html=1;align=center;verticalAlign=middle;resizable=0;points=[];" vertex="1" connectable="0" parent="6JrDKTPBiihJPNNbZpGh-58">
          <mxGeometry x="-0.1642" y="-2" relative="1" as="geometry">
            <mxPoint x="65" y="-4" as="offset" />
          </mxGeometry>
        </mxCell>
      </root>
    </mxGraphModel>
  </diagram>
</mxfile>
